<svg version="1.1" xmlns="http://www.w3.org/2000/svg" viewBox="0 0 128 128">
    <path d="M125,31.2c0.9-3,0-5.2-4.2-5.2h-14c-3.5,0-5.2,1.9-6.1,3.9c0,0-7.2,17.4-17.2,28.6c-3.3,3.3-4.7,4.3-6.5,4.3 c-0.9,0-2.2-1.1-2.2-4.1V31.1c0-3.5-1.1-5.2-4.1-5.2h-22c-2.2,0-3.5,1.6-3.5,3.3c0,3.4,5,4.2,5.6,13.7v20.6c0,4.5-0.8,5.3-2.6,5.3 c-4.7,0-16.3-17.5-23.2-37.4c-1.4-3.9-2.7-5.4-6.2-5.4H4.7c-4.1,0-4.7,1.9-4.7,3.9c0,3.7,4.7,22.1,22.1,46.5 C33.6,93,50,102,64.8,102c8.9,0,10-2,10-5.4V83.9c0-4.1,0.8-4.7,3.7-4.7c2,0,5.7,1.1,14,9.1c9.5,9.5,11.1,13.8,16.4,13.8h14 c4.1,0,6-2,4.9-6c-1.2-3.9-5.8-9.6-11.8-16.4c-3.3-3.8-8.1-8-9.6-10c-2-2.7-1.5-3.8,0-6.2C106.1,63.5,123.2,39.3,125,31.2z"/>
</svg>
