<svg version="1.1" xmlns="http://www.w3.org/2000/svg" viewBox="0 0 128 128">
    <path d="M0,20.3C0,10.1,8.4,1.9,18.6,1.9h90.8c10.2,0,18.6,8.2,18.6,18.4v87.4c0,10.2-8.4,18.4-18.6,18.4H18.6 C8.4,125.9,0,117.7,0,107.5V20.3z M65.2,25.5c-20.6,0-37.4,16.6-37.4,37s16.8,37,37.4,37s37.4-16.6,37.4-37S86,25.5,65.2,25.5z M65.2,86.7c-13.4,0-24.4-10.8-24.4-24s10.8-24,24.4-24c13.4,0,24.4,10.8,24.4,24S78.6,86.7,65.2,86.7z M113,24.1 c0,4.8-4,8.6-8.8,8.6s-8.8-3.8-8.8-8.6s4-8.6,8.8-8.6S113,19.3,113,24.1z"/>
</svg>
