<svg version="1.1" xmlns="http://www.w3.org/2000/svg" viewBox="0 0 128 128">
    <path d="M0,64c0,0,19.9-40.5,64-40.5S128,64,128,64c-18.8,37.3-62.7,51.4-98.1,31.5C17.2,88.4,6.8,77.4,0,64z M114.9,64.2
	c-2.2-3.3-5.6-7.8-10.3-12.3C92.9,40.5,79.3,34.8,63.9,34.8c-15,0-28.5,5.6-40.2,16.6c-5,4.7-8.5,9.4-10.8,12.8
	c5.6,9.1,13.3,16.4,22.4,21.6c8.9,5,18.5,7.6,28.5,7.6C84.6,93.3,103.7,82.3,114.9,64.2z"/>
    <path d="M64.2,41c12.7,0,23,10.3,23,23s-10.3,23-23,23s-23-10.3-23-23S51.5,41,64.2,41z M75.9,64c0-6.5-5.3-11.7-11.7-11.7
	S52.5,57.5,52.5,64s5.3,11.7,11.7,11.7C70.7,75.7,75.9,70.5,75.9,64z"/>
</svg>
