<svg version="1.1" xmlns="http://www.w3.org/2000/svg" viewBox="0 0 128 128">
    <path d="M108.8,38.5H80v6.4h25.6v76.7H22.4V44.9H48v-6.4H19.2c-1.8,0-3.2,1.4-3.2,3.2v83.1c0,1.8,1.4,3.2,3.2,3.2h89.5
		c1.8,0,3.2-1.4,3.2-3.2V41.7C112,39.9,110.6,38.5,108.8,38.5z"/>
    <path d="M85.4,19.7L66.2,0.9c-1.2-1.2-3.2-1.2-4.6,0L42.4,19.7c-1.2,1.2-1.2,3.2,0,4.6c1.2,1.2,3.2,1.2,4.6,0l13.8-13.4v68.7
		c0,1.8,1.4,3.2,3.2,3.2c1.8,0,3.2-1.4,3.2-3.2V10.9L81,24.3c1.2,1.2,3.2,1.2,4.6,0C86.8,23.1,86.8,21.1,85.4,19.7z"/>
</svg>
